<svg width="1200" height="675" viewBox="0 0 1200 675" fill="none" xmlns="http://www.w3.org/2000/svg">
  <defs>
    <linearGradient id="bg" x1="120" y1="40" x2="1080" y2="620" gradientUnits="userSpaceOnUse">
      <stop stop-color="#050816"/>
      <stop offset="0.55" stop-color="#0B1220"/>
      <stop offset="1" stop-color="#121A31"/>
    </linearGradient>
    <linearGradient id="accent" x1="220" y1="120" x2="920" y2="540" gradientUnits="userSpaceOnUse">
      <stop stop-color="#F97316" stop-opacity="0.9"/>
      <stop offset="1" stop-color="#EF4444" stop-opacity="0.9"/>
    </linearGradient>
    <radialGradient id="glow" cx="0" cy="0" r="1" gradientUnits="userSpaceOnUse" gradientTransform="translate(780 220) rotate(90) scale(260 350)">
      <stop stop-color="#F97316" stop-opacity="0.22"/>
      <stop offset="1" stop-color="#F97316" stop-opacity="0"/>
    </radialGradient>
    <filter id="blur" x="0" y="0" width="1200" height="675" filterUnits="userSpaceOnUse">
      <feGaussianBlur stdDeviation="26"/>
    </filter>
  </defs>

  <rect width="1200" height="675" rx="36" fill="url(#bg)"/>
  <rect width="1200" height="675" rx="36" fill="url(#glow)"/>

  <g opacity="0.16">
    <path d="M0 90H1200" stroke="#94A3B8" stroke-width="1"/>
    <path d="M0 180H1200" stroke="#94A3B8" stroke-width="1"/>
    <path d="M0 270H1200" stroke="#94A3B8" stroke-width="1"/>
    <path d="M0 360H1200" stroke="#94A3B8" stroke-width="1"/>
    <path d="M0 450H1200" stroke="#94A3B8" stroke-width="1"/>
    <path d="M0 540H1200" stroke="#94A3B8" stroke-width="1"/>
    <path d="M120 0V675" stroke="#94A3B8" stroke-width="1"/>
    <path d="M300 0V675" stroke="#94A3B8" stroke-width="1"/>
    <path d="M480 0V675" stroke="#94A3B8" stroke-width="1"/>
    <path d="M660 0V675" stroke="#94A3B8" stroke-width="1"/>
    <path d="M840 0V675" stroke="#94A3B8" stroke-width="1"/>
    <path d="M1020 0V675" stroke="#94A3B8" stroke-width="1"/>
  </g>

  <g filter="url(#blur)" opacity="0.8">
    <circle cx="230" cy="140" r="70" fill="#F97316" fill-opacity="0.24"/>
    <circle cx="900" cy="150" r="120" fill="#EF4444" fill-opacity="0.16"/>
    <circle cx="760" cy="420" r="150" fill="#F59E0B" fill-opacity="0.1"/>
  </g>

  <rect x="72" y="72" width="520" height="120" rx="24" fill="#0F172A" fill-opacity="0.76" stroke="#334155"/>
  <text x="108" y="126" fill="#F8FAFC" font-family="Arial, Helvetica, sans-serif" font-size="44" font-weight="700" letter-spacing="2">IRONMAN</text>
  <text x="108" y="166" fill="#F97316" font-family="Arial, Helvetica, sans-serif" font-size="32" font-weight="700" letter-spacing="4">UBIQUITOUS SYSTEM</text>

  <g transform="translate(72 238)">
    <rect x="0" y="0" width="300" height="266" rx="24" fill="#0F172A" fill-opacity="0.88" stroke="#334155"/>
    <rect x="24" y="24" width="252" height="54" rx="14" fill="#16213E" stroke="#F97316" stroke-opacity="0.45"/>
    <circle cx="48" cy="51" r="8" fill="#22C55E"/>
    <text x="68" y="56" fill="#F8FAFC" font-family="Arial, Helvetica, sans-serif" font-size="20" font-weight="700">ATLETA · DRON · SOPORTE</text>

    <rect x="24" y="96" width="252" height="40" rx="10" fill="#101826" stroke="#334155"/>
    <rect x="24" y="146" width="252" height="40" rx="10" fill="#101826" stroke="#334155"/>
    <rect x="24" y="196" width="252" height="40" rx="10" fill="#101826" stroke="#334155"/>

    <text x="40" y="122" fill="#F97316" font-family="Arial, Helvetica, sans-serif" font-size="15" font-weight="700">SOS</text>
    <text x="96" y="122" fill="#94A3B8" font-family="Arial, Helvetica, sans-serif" font-size="15">multi-trigger</text>
    <text x="40" y="172" fill="#22C55E" font-family="Arial, Helvetica, sans-serif" font-size="15" font-weight="700">REAL TIME</text>
    <text x="96" y="172" fill="#94A3B8" font-family="Arial, Helvetica, sans-serif" font-size="15">Socket.IO sync</text>
    <text x="40" y="222" fill="#F59E0B" font-family="Arial, Helvetica, sans-serif" font-size="15" font-weight="700">AI + NUI</text>
    <text x="96" y="222" fill="#94A3B8" font-family="Arial, Helvetica, sans-serif" font-size="15">Pose, FaceMesh, voz</text>
  </g>

  <g transform="translate(444 238)">
    <rect x="0" y="0" width="684" height="266" rx="24" fill="#0B1220" fill-opacity="0.76" stroke="#334155"/>
    <path d="M78 98C148 42 238 34 332 74C426 114 478 112 552 58" stroke="url(#accent)" stroke-width="8" stroke-linecap="round" stroke-dasharray="18 12"/>
    <circle cx="104" cy="92" r="18" fill="#F97316"/>
    <circle cx="342" cy="86" r="18" fill="#22C55E"/>
    <circle cx="570" cy="66" r="18" fill="#F59E0B"/>

    <rect x="56" y="138" width="572" height="82" rx="18" fill="#16213E" stroke="#334155"/>
    <text x="84" y="170" fill="#F8FAFC" font-family="Arial, Helvetica, sans-serif" font-size="26" font-weight="700">WebSocket orchestration</text>
    <text x="84" y="198" fill="#94A3B8" font-family="Arial, Helvetica, sans-serif" font-size="18">State sync, rooms, biometrics and emergency broadcasts</text>

    <g transform="translate(480 28)">
      <rect x="0" y="0" width="140" height="72" rx="16" fill="#101826" stroke="#F97316" stroke-opacity="0.5"/>
      <text x="70" y="31" text-anchor="middle" fill="#F97316" font-family="Arial, Helvetica, sans-serif" font-size="18" font-weight="700">5+ SOS</text>
      <text x="70" y="52" text-anchor="middle" fill="#94A3B8" font-family="Arial, Helvetica, sans-serif" font-size="13">redundant triggers</text>
    </g>
  </g>

  <g opacity="0.92">
    <rect x="72" y="538" width="195" height="48" rx="14" fill="#16213E" stroke="#F97316" stroke-opacity="0.5"/>
    <rect x="284" y="538" width="195" height="48" rx="14" fill="#16213E" stroke="#22C55E" stroke-opacity="0.45"/>
    <rect x="496" y="538" width="195" height="48" rx="14" fill="#16213E" stroke="#F59E0B" stroke-opacity="0.45"/>
    <rect x="708" y="538" width="420" height="48" rx="14" fill="#16213E" stroke="#334155"/>

    <text x="169.5" y="568" text-anchor="middle" fill="#F8FAFC" font-family="Arial, Helvetica, sans-serif" font-size="18" font-weight="700">Node.js + Express</text>
    <text x="381.5" y="568" text-anchor="middle" fill="#F8FAFC" font-family="Arial, Helvetica, sans-serif" font-size="18" font-weight="700">MediaPipe Pose</text>
    <text x="593.5" y="568" text-anchor="middle" fill="#F8FAFC" font-family="Arial, Helvetica, sans-serif" font-size="18" font-weight="700">Web Speech API</text>
    <text x="918" y="568" text-anchor="middle" fill="#94A3B8" font-family="Arial, Helvetica, sans-serif" font-size="16">Triathlon support, real-time alerts, and contextual assistance</text>
  </g>
</svg>
